<?xml version="1.0" encoding="utf-8"?>
<!-- Generator: Adobe Illustrator 19.1.0, SVG Export Plug-In . SVG Version: 6.00 Build 0)  -->
<svg version="1.1" id="レイヤー_1" xmlns="http://www.w3.org/2000/svg" xmlns:xlink="http://www.w3.org/1999/xlink" x="0px"
	 y="0px" viewBox="0 0 140 21" style="enable-background:new 0 0 140 21;" xml:space="preserve">
<style type="text/css">
	.st0{fill:#5A92CE;}
	.st1{fill:#040000;}
	.st2{fill:#187FAF;}
	.st3{fill:#EAD23B;}
	.st4{fill:#C55550;}
</style>
<g>
	<polygon class="st0" points="39.7,18.2 25.4,18.2 32.5,4 	"/>
	<path class="st1" d="M41.8,19.5H22.9l9.5-19L41.8,19.5z M27.4,17h10.2L32.5,6.8L27.4,17z"/>
	<line class="st2" x1="25.4" y1="11.3" x2="39.7" y2="11.3"/>
	<rect x="23.9" y="9.5" class="st1" width="16.9" height="3"/>
	<ellipse class="st3" cx="80.8" cy="10.3" rx="8" ry="8"/>
	<path class="st1" d="M80.8,19.5c-5.1,0-9.2-4.1-9.2-9.2S75.8,1,80.8,1c5.1,0,9.2,4.1,9.2,9.2S85.9,19.5,80.8,19.5z M80.8,3.5
		c-3.7,0-6.7,3-6.7,6.7s3,6.7,6.7,6.7c3.7,0,6.7-3,6.7-6.7S84.5,3.5,80.8,3.5z"/>
	<ellipse class="st4" cx="129.8" cy="10.3" rx="8" ry="8"/>
	<path class="st1" d="M129.8,19.5c-5.1,0-9.2-4.1-9.2-9.2s4.1-9.2,9.2-9.2s9.2,4.1,9.2,9.2S134.9,19.5,129.8,19.5z M129.8,3.5
		c-3.7,0-6.7,3-6.7,6.7s3,6.7,6.7,6.7c3.7,0,6.7-3,6.7-6.7S133.5,3.5,129.8,3.5z"/>
	<path class="st1" d="M105.8,19.5c-5.5,0.4-9.9-4-9.9-9.5V9c0,0,0,0,0,0h2.5c0,0,0,0,0,0v1c0,3.6,2.8,6.8,6.4,6.9
		c3.8,0.2,7-2.9,7-6.7V3.6c0,0,0,0,0,0h-7.2c0,0,0,0,0,0V1c0,0,0,0,0,0h9.7c0,0,0,0,0,0v9.2C114.2,15.1,110.5,19.1,105.8,19.5z"/>
	<path class="st1" d="M56.4,19.5c-5.1,0-9.2-4.1-9.2-9.2S51.3,1,56.4,1h7.5v2.5h-7.5c-3.7,0-6.7,3-6.7,6.7s3,6.7,6.7,6.7
		c3.3,0,6-2.4,6.6-5.5h-6.6V9h9.2v1.3C65.6,15.4,61.5,19.5,56.4,19.5z"/>
	<path class="st1" d="M11.3,19.5H1V17h10.3c1.4,0,2.6-1.2,2.6-2.6s-1.2-2.6-2.6-2.6H6.1C3.3,11.7,1,9.4,1,6.6s2.2-5.1,5-5.1h9
		L15.1,4h-9C4.7,4,3.5,5.1,3.5,6.6s1.2,2.6,2.6,2.6h5.2c2.8,0,5.1,2.3,5.1,5.1C16.4,17.2,14.1,19.5,11.3,19.5z"/>
</g>
</svg>
